<svg width="1144" height="1756" viewBox="0 0 1144 1756" fill="none" xmlns="http://www.w3.org/2000/svg">
<rect width="1144" height="1756" fill="white"/>
<path d="M2.5 32.5L27.5 1.5L55.5 32.5M55.5 32.5V138M55.5 32.5L76.5 1.5L96.5 32.5M96.5 32.5V138M96.5 32.5L121.5 1.5L143.5 32.5M143.5 32.5V138M143.5 32.5L171 1.5L190.5 32.5M190.5 32.5V138M190.5 32.5L222.5 1.5L247 32.5M247 32.5V138M247 32.5L273.5 1.5L297.5 32.5M297.5 32.5V138M297.5 32.5L314.5 1.5L337.5 32.5M337.5 32.5V138M337.5 32.5L362 1.5L385.5 32.5M385.5 32.5V138M385.5 32.5L416 1.5L447.5 32.5V138" stroke="black"/>
<path d="M448 33L473 2L501 33M501 33V138.5M501 33L522 2L542 33M542 33V138.5M542 33L567 2L589 33M589 33V138.5M589 33L616.5 2L636 33M636 33V138.5M636 33L668 2L692.5 33M692.5 33V138.5M692.5 33L719 2L743 33M743 33V138.5M743 33L760 2L783 33M783 33V138.5M783 33L807.5 2L831 33M831 33V138.5M831 33L861.5 2L893 33V138.5" stroke="black"/>
<path d="M1 1647L26 1616L54 1647M54 1647V1752.5M54 1647L75 1616L95 1647M95 1647V1752.5M95 1647L120 1616L142 1647M142 1647V1752.5M142 1647L169.5 1616L189 1647M189 1647V1752.5M189 1647L221 1616L245.5 1647M245.5 1647V1752.5M245.5 1647L272 1616L296 1647M296 1647V1752.5M296 1647L313 1616L336 1647M336 1647V1752.5M336 1647L360.5 1616L384 1647M384 1647V1752.5M384 1647L414.5 1616L446 1647V1752.5" stroke="black"/>
<path d="M446 1647L471 1616L499 1647M499 1647V1752.5M499 1647L520 1616L540 1647M540 1647V1752.5M540 1647L565 1616L587 1647M587 1647V1752.5M587 1647L614.5 1616L634 1647M634 1647V1752.5M634 1647L666 1616L690.5 1647M690.5 1647V1752.5M690.5 1647L717 1616L741 1647M741 1647V1752.5M741 1647L758 1616L781 1647M781 1647V1752.5M781 1647L805.5 1616L829 1647M829 1647V1752.5M829 1647L859.5 1616L891 1647V1752.5" stroke="black"/>
<path d="M891 1647L916 1616L944 1647M944 1647V1752.5M944 1647L965 1616L985 1647M985 1647V1752.5M985 1647L1010 1616L1032 1647M1032 1647V1752.5M1032 1647L1059.5 1616L1079 1647M1079 1647V1752.5M1079 1647L1111 1616L1143 1645" stroke="black"/>
<line x1="3.5" y1="31.0006" x2="1.5" y2="1753" stroke="black"/>
<line x1="1143" y1="1755.5" x2="0.999185" y2="1753.5" stroke="black"/>
<line x1="1142.5" y1="34" x2="1142.5" y2="1755" stroke="black"/>
<path d="M2.5 139.5L1142 139.961" stroke="black"/>
<path d="M893 34L918 3L946 34M946 34V139.5M946 34L967 3L987 34M987 34V139.5M987 34L1012 3L1034 34M1034 34V139.5M1034 34L1061.5 3L1081 34M1081 34V139.5M1081 34L1113 3L1142.5 34" stroke="black"/>
<path d="M680.5 180V476.5M680.5 180H975V476.5M680.5 180L669 221.5V498.5M680.5 476.5H975M680.5 476.5L669 498.5M975 476.5L961.5 498.5H669" stroke="black"/>
<path d="M681 216H952M952 216L975 182M952 216V476" stroke="black"/>
<path d="M728.023 270.709C735.606 259.113 747.005 254.538 760.276 255.599C764.549 255.941 769.967 257.02 774.166 255.803C776.979 254.988 779.602 253.436 782.094 251.941C783.818 250.906 785.882 250.828 787.785 250.247C791.854 249.003 795.386 248.756 799.609 248.756C802.461 248.756 804.104 247.409 806.757 246.927C810.158 246.308 813.716 246.68 817.023 245.707C822.642 244.054 828.713 246.317 834.47 246.317C837.898 246.317 840.156 248.022 843.482 248.62C846.639 249.189 849.996 246.927 853.239 246.927C857.104 246.927 861.065 247.864 864.622 249.298C868.026 250.67 871.578 252.908 875.226 253.533C878.074 254.021 880.665 253.582 883.492 254.583C885.882 255.43 888.974 256.251 891.183 257.429C893.234 258.523 895.335 261.023 897.247 262.511C902.709 266.759 905.542 273.821 910.358 278.637" stroke="black" stroke-linecap="round"/>
<path d="M724.974 347.546C728.167 346.907 732.013 344.14 734.731 342.363C737.921 340.277 740.238 336.577 741.981 333.215C744.685 328.001 745.136 324.154 751.264 322.239C753.934 321.404 755.338 321.552 757.769 319.969C760.218 318.374 762.05 315.933 763.393 313.396C765.446 309.518 771.119 308.518 774.979 308.518C777.611 308.518 780.359 308.261 782.975 308.552C785.551 308.838 786.953 311.111 789.276 311.533C790.552 311.765 791 316.309 792.054 317.597C793.729 319.645 797.181 320.309 799.711 320.714C802.576 321.173 805.419 322.787 807.977 324.102C811.154 325.736 814.36 327.471 817.463 329.252C822.428 332.1 823.928 335.859 827.423 340.228" stroke="black" stroke-linecap="round"/>
<path d="M813.398 432.92C813.398 424.039 812.665 414.04 821.528 409.205C823.8 407.966 826.091 407.45 828.677 407.342C832.56 407.18 836.727 409.011 840.5 408.257C845.613 407.234 850.475 399.962 853.611 396.094C857.237 391.623 863.206 394.567 868.349 392.401C873.514 390.227 876.498 390.342 881.426 393.011C883.536 394.154 885.777 395.703 888.134 396.331C890.99 397.093 893.395 399.223 895.858 400.769C898.912 402.687 898.362 403.49 899.653 406.698C902.517 413.816 912.797 417.223 912.797 425.602" stroke="black" stroke-linecap="round"/>
<path d="M863.2 322.523C863.484 307.149 873.055 305.045 886.125 304.692C890.477 304.574 893.017 299.509 897.447 298.559C900.667 297.869 904.419 297.344 907.73 297.946C911.156 298.569 917.329 298.228 919.665 301.343C921.579 303.895 923.549 306.399 925.561 308.89C927.353 311.108 931.102 313.106 931.977 315.73" stroke="black" stroke-linecap="round"/>
<path d="M758.76 427.811C759.047 422.079 760.459 416.742 760.459 410.877C760.459 404.646 752.438 405.735 748.005 405.735C742.108 405.735 735.907 405.413 732.061 400.168C728.586 395.429 725.601 392.266 720.928 388.706C718.074 386.531 713.909 385.414 711.399 382.998C710.113 381.759 709.481 380.112 708.663 378.564C707.058 375.521 704.186 374.125 701.163 372.714C696.183 370.39 688.246 370.691 684.889 375.167" stroke="black" stroke-linecap="round"/>
<path d="M717 602L698 556L712.25 563.75M822 602L849.5 556L836 561.318M742.75 558.25L733 547.5L730.089 558.25M742.75 558.25L752.5 569L766.744 551.5M742.75 558.25L756.5 533L766.744 551.5M766.744 551.5L770 547.5L776.5 558.25M776.5 558.25L783 569L804.57 551.5M776.5 558.25L792.5 537L804.57 551.5M804.57 551.5L809.5 547.5L813 558.25M813 558.25L816.5 569L836 561.318M813 558.25L828.5 551.5L836 561.318M712.25 563.75L726.5 571.5L730.089 558.25M712.25 563.75L717 547.5L730.089 558.25" stroke="black"/>
<path d="M933 579L914 533L928.25 540.75M1038 579L1065.5 533L1052 538.318M958.75 535.25L949 524.5L946.089 535.25M958.75 535.25L968.5 546L982.744 528.5M958.75 535.25L972.5 510L982.744 528.5M982.744 528.5L986 524.5L992.5 535.25M992.5 535.25L999 546L1020.57 528.5M992.5 535.25L1008.5 514L1020.57 528.5M1020.57 528.5L1025.5 524.5L1029 535.25M1029 535.25L1032.5 546L1052 538.318M1029 535.25L1044.5 528.5L1052 538.318M928.25 540.75L942.5 548.5L946.089 535.25M928.25 540.75L933 524.5L946.089 535.25" stroke="black"/>
<path d="M433 339L414 293L428.25 300.75M538 339L565.5 293L552 298.318M458.75 295.25L449 284.5L446.089 295.25M458.75 295.25L468.5 306L482.744 288.5M458.75 295.25L472.5 270L482.744 288.5M482.744 288.5L486 284.5L492.5 295.25M492.5 295.25L499 306L520.57 288.5M492.5 295.25L508.5 274L520.57 288.5M520.57 288.5L525.5 284.5L529 295.25M529 295.25L532.5 306L552 298.318M529 295.25L544.5 288.5L552 298.318M428.25 300.75L442.5 308.5L446.089 295.25M428.25 300.75L433 284.5L446.089 295.25" stroke="black"/>
</svg>
